<svg id="visual" viewBox="0 0 900 600" width="900" height="600" xmlns="http://www.w3.org/2000/svg" xmlns:xlink="http://www.w3.org/1999/xlink" version="1.1"><path d="M0 55L13.7 58C27.3 61 54.7 67 82 67C109.3 67 136.7 61 163.8 61C191 61 218 67 245.2 67C272.3 67 299.7 61 327 61C354.3 61 381.7 67 409 75C436.3 83 463.7 93 491 88C518.3 83 545.7 63 573 54C600.3 45 627.7 47 654.8 51C682 55 709 61 736.2 67C763.3 73 790.7 79 818 76C845.3 73 872.7 61 886.3 55L900 49L900 0L886.3 0C872.7 0 845.3 0 818 0C790.7 0 763.3 0 736.2 0C709 0 682 0 654.8 0C627.7 0 600.3 0 573 0C545.7 0 518.3 0 491 0C463.7 0 436.3 0 409 0C381.7 0 354.3 0 327 0C299.7 0 272.3 0 245.2 0C218 0 191 0 163.8 0C136.7 0 109.3 0 82 0C54.7 0 27.3 0 13.7 0L0 0Z" fill="#6198ff"></path><path d="M0 217L13.7 228C27.3 239 54.7 261 82 275C109.3 289 136.7 295 163.8 280C191 265 218 229 245.2 234C272.3 239 299.7 285 327 286C354.3 287 381.7 243 409 228C436.3 213 463.7 227 491 225C518.3 223 545.7 205 573 195C600.3 185 627.7 183 654.8 203C682 223 709 265 736.2 276C763.3 287 790.7 267 818 241C845.3 215 872.7 183 886.3 167L900 151L900 47L886.3 53C872.7 59 845.3 71 818 74C790.7 77 763.3 71 736.2 65C709 59 682 53 654.8 49C627.7 45 600.3 43 573 52C545.7 61 518.3 81 491 86C463.7 91 436.3 81 409 73C381.7 65 354.3 59 327 59C299.7 59 272.3 65 245.2 65C218 65 191 59 163.8 59C136.7 59 109.3 65 82 65C54.7 65 27.3 59 13.7 56L0 53Z" fill="#3c80ff"></path><path d="M0 391L13.7 387C27.3 383 54.7 375 82 374C109.3 373 136.7 379 163.8 390C191 401 218 417 245.2 423C272.3 429 299.7 425 327 428C354.3 431 381.7 441 409 431C436.3 421 463.7 391 491 387C518.3 383 545.7 405 573 408C600.3 411 627.7 395 654.8 393C682 391 709 403 736.2 407C763.3 411 790.7 407 818 406C845.3 405 872.7 407 886.3 408L900 409L900 149L886.3 165C872.7 181 845.3 213 818 239C790.7 265 763.3 285 736.2 274C709 263 682 221 654.8 201C627.7 181 600.3 183 573 193C545.7 203 518.3 221 491 223C463.7 225 436.3 211 409 226C381.7 241 354.3 285 327 284C299.7 283 272.3 237 245.2 232C218 227 191 263 163.8 278C136.7 293 109.3 287 82 273C54.7 259 27.3 237 13.7 226L0 215Z" fill="#0066ff"></path><path d="M0 487L13.7 483C27.3 479 54.7 471 82 467C109.3 463 136.7 463 163.8 468C191 473 218 483 245.2 490C272.3 497 299.7 501 327 511C354.3 521 381.7 537 409 531C436.3 525 463.7 497 491 484C518.3 471 545.7 473 573 470C600.3 467 627.7 459 654.8 460C682 461 709 471 736.2 479C763.3 487 790.7 493 818 503C845.3 513 872.7 527 886.3 534L900 541L900 407L886.3 406C872.7 405 845.3 403 818 404C790.7 405 763.3 409 736.2 405C709 401 682 389 654.8 391C627.7 393 600.3 409 573 406C545.7 403 518.3 381 491 385C463.7 389 436.3 419 409 429C381.7 439 354.3 429 327 426C299.7 423 272.3 427 245.2 421C218 415 191 399 163.8 388C136.7 377 109.3 371 82 372C54.7 373 27.3 381 13.7 385L0 389Z" fill="#0059dd"></path><path d="M0 601L13.7 601C27.3 601 54.7 601 82 601C109.3 601 136.7 601 163.8 601C191 601 218 601 245.2 601C272.3 601 299.7 601 327 601C354.3 601 381.7 601 409 601C436.3 601 463.7 601 491 601C518.3 601 545.7 601 573 601C600.3 601 627.7 601 654.8 601C682 601 709 601 736.2 601C763.3 601 790.7 601 818 601C845.3 601 872.7 601 886.3 601L900 601L900 539L886.3 532C872.7 525 845.3 511 818 501C790.7 491 763.3 485 736.2 477C709 469 682 459 654.8 458C627.7 457 600.3 465 573 468C545.7 471 518.3 469 491 482C463.7 495 436.3 523 409 529C381.7 535 354.3 519 327 509C299.7 499 272.3 495 245.2 488C218 481 191 471 163.8 466C136.7 461 109.3 461 82 465C54.7 469 27.3 477 13.7 481L0 485Z" fill="#004cbb"></path></svg>